<svg width="21" height="21" viewBox="0 0 21 21" fill="none" xmlns="http://www.w3.org/2000/svg">
<g clip-path="url(#clip0_3_773)">
<path d="M10.3563 2.31982C12.6205 2.31982 12.903 2.32816 13.7913 2.36982C14.6788 2.41149 15.283 2.55066 15.8147 2.75732C16.3647 2.96899 16.828 3.25566 17.2913 3.71816C17.7151 4.13474 18.043 4.63865 18.2522 5.19482C18.458 5.72566 18.598 6.33066 18.6397 7.21816C18.6788 8.10649 18.6897 8.38899 18.6897 10.6531C18.6897 12.9173 18.6813 13.1998 18.6397 14.0881C18.598 14.9756 18.458 15.5798 18.2522 16.1115C18.0436 16.6679 17.7156 17.172 17.2913 17.5881C16.8746 18.0117 16.3708 18.3396 15.8147 18.549C15.2838 18.7548 14.6788 18.8948 13.7913 18.9365C12.903 18.9756 12.6205 18.9865 10.3563 18.9865C8.09212 18.9865 7.80962 18.9781 6.92129 18.9365C6.03379 18.8948 5.42962 18.7548 4.89795 18.549C4.34156 18.3402 3.83756 18.0122 3.42129 17.5881C2.99746 17.1716 2.66956 16.6677 2.46045 16.1115C2.25379 15.5806 2.11462 14.9756 2.07295 14.0881C2.03379 13.1998 2.02295 12.9173 2.02295 10.6531C2.02295 8.38899 2.03129 8.10649 2.07295 7.21816C2.11462 6.32982 2.25379 5.72649 2.46045 5.19482C2.66898 4.63831 2.99696 4.13426 3.42129 3.71816C3.83768 3.29418 4.34164 2.96626 4.89795 2.75732C5.42962 2.55066 6.03295 2.41149 6.92129 2.36982C7.80962 2.33066 8.09212 2.31982 10.3563 2.31982ZM10.3563 6.48649C9.25122 6.48649 8.19141 6.92548 7.41001 7.70688C6.62861 8.48828 6.18962 9.54809 6.18962 10.6531C6.18962 11.7582 6.62861 12.818 7.41001 13.5994C8.19141 14.3808 9.25122 14.8198 10.3563 14.8198C11.4614 14.8198 12.5212 14.3808 13.3026 13.5994C14.084 12.818 14.523 11.7582 14.523 10.6531C14.523 9.54809 14.084 8.48828 13.3026 7.70688C12.5212 6.92548 11.4614 6.48649 10.3563 6.48649ZM15.773 6.27816C15.773 6.00189 15.6632 5.73694 15.4679 5.54159C15.2725 5.34624 15.0076 5.23649 14.7313 5.23649C14.4551 5.23649 14.1901 5.34624 13.9948 5.54159C13.7994 5.73694 13.6897 6.00189 13.6897 6.27816C13.6897 6.55442 13.7994 6.81937 13.9948 7.01473C14.1901 7.21008 14.4551 7.31982 14.7313 7.31982C15.0076 7.31982 15.2725 7.21008 15.4679 7.01473C15.6632 6.81937 15.773 6.55442 15.773 6.27816ZM10.3563 8.15316C11.0194 8.15316 11.6553 8.41655 12.1241 8.88539C12.5929 9.35423 12.8563 9.99011 12.8563 10.6531C12.8563 11.3162 12.5929 11.9521 12.1241 12.4209C11.6553 12.8897 11.0194 13.1531 10.3563 13.1531C9.69324 13.1531 9.05736 12.8897 8.58852 12.4209C8.11968 11.9521 7.85629 11.3162 7.85629 10.6531C7.85629 9.99011 8.11968 9.35423 8.58852 8.88539C9.05736 8.41655 9.69324 8.15316 10.3563 8.15316Z" fill="black"/>
</g>
<defs>
<clipPath id="clip0_3_773">
<rect width="20" height="20" fill="white" transform="translate(0.35498 0.653809)"/>
</clipPath>
</defs>
</svg>
