<svg width="21" height="21" viewBox="0 0 21 21" fill="none" xmlns="http://www.w3.org/2000/svg">
<g clip-path="url(#clip0_3_768)">
<path d="M6.13753 4.81936C6.13731 5.26139 5.9615 5.68523 5.64878 5.99763C5.33607 6.31004 4.91206 6.48542 4.47003 6.4852C4.028 6.48498 3.60417 6.30917 3.29176 5.99645C2.97936 5.68374 2.80397 5.25972 2.8042 4.8177C2.80442 4.37567 2.98022 3.95183 3.29294 3.63943C3.60566 3.32703 4.02967 3.15164 4.4717 3.15186C4.91372 3.15208 5.33756 3.32789 5.64996 3.64061C5.96237 3.95333 6.13775 4.37734 6.13753 4.81936ZM6.18753 7.71936H2.8542V18.1527H6.18753V7.71936ZM11.4542 7.71936H8.13753V18.1527H11.4209V12.6777C11.4209 9.6277 15.3959 9.34436 15.3959 12.6777V18.1527H18.6875V11.5443C18.6875 6.4027 12.8042 6.59436 11.4209 9.11936L11.4542 7.71936Z" fill="black"/>
</g>
<defs>
<clipPath id="clip0_3_768">
<rect width="20" height="20" fill="white" transform="translate(0.35498 0.653809)"/>
</clipPath>
</defs>
</svg>
