<svg width="148" height="43" viewBox="0 0 148 43" fill="none" xmlns="http://www.w3.org/2000/svg">
<g clip-path="url(#clip0_3_740)">
<path d="M35.8867 0L27.3169 5.10916V26.7318L35.8867 21.7136V0Z" fill="#EA001B"/>
<path d="M35.8858 32.0944V42.4038L17.5845 31.729V21.2363L35.8858 32.0944Z" fill="#F79E1C"/>
<path d="M27.3165 15.693L18.3879 10.0364L0.35498 20.9842L9.10421 26.3665L27.3165 15.693Z" fill="#EA001B"/>
<path d="M54.3833 11.1157H64.3859V12.9414H56.3581V20.2196H64.0932V22.0454H56.3581V31.2585H54.3846V11.1157H54.3833Z" fill="#EA001B" stroke="#EA001B" stroke-miterlimit="10"/>
<path d="M87.4547 21.9648C87.0818 27.4979 82.3331 31.6136 77.0258 31.6136C71.3444 31.6136 66.4634 26.979 66.4634 21.0922C66.4634 18.4213 67.6633 15.723 69.5045 13.8687C71.5582 11.7972 74.1985 10.7881 77.0258 10.7881C79.0795 10.7881 81.1065 11.3602 82.8141 12.5059C84.0942 13.3784 85.7483 14.9324 86.2548 16.485H84.014C82.6271 14.1131 79.773 12.723 77.0258 12.723C74.9187 12.723 72.7848 13.4591 71.1574 14.9857C69.5299 16.5123 68.4369 18.8296 68.4369 21.1182C68.4369 26.0245 72.4107 29.6773 77.106 29.6773C80.6268 29.6773 84.0942 27.3054 85.0816 23.7892H74.0661V21.9635H87.4559L87.4547 21.9648Z" fill="#EA001B" stroke="#EA001B" stroke-miterlimit="10"/>
<path d="M90.5747 11.1157H92.5482V31.2598H90.5747V11.1157Z" fill="#EA001B" stroke="#EA001B" stroke-miterlimit="10"/>
<path d="M103.991 11.1157H105.964V29.4328H114.126V31.2585H103.991V11.1157Z" fill="#EA001B" stroke="#EA001B" stroke-miterlimit="10"/>
<path d="M116.312 11.1157H118.286V29.4328H126.447V31.2585H116.312V11.1157Z" fill="#EA001B" stroke="#EA001B" stroke-miterlimit="10"/>
<path d="M144.877 16.2952C143.41 14.0052 140.636 12.7243 137.996 12.7243C133.514 12.7243 129.754 16.7035 129.754 21.1195C129.754 25.8347 133.648 29.6786 138.129 29.6786C140.796 29.6786 143.41 28.2066 144.957 25.9985H147.145C145.437 29.3509 141.837 31.6136 138.129 31.6136C132.341 31.6136 127.781 27.0609 127.781 21.1195C127.781 15.1781 132.368 10.7881 137.969 10.7881C139.969 10.7881 141.97 11.3329 143.651 12.4786C144.904 13.2965 146.531 14.8231 147.064 16.2952H144.877Z" fill="#EA001B" stroke="#EA001B" stroke-miterlimit="10"/>
</g>
<defs>
<clipPath id="clip0_3_740">
<rect width="147" height="42.4038" fill="white" transform="translate(0.35498)"/>
</clipPath>
</defs>
</svg>
