<svg width="191" height="55" viewBox="0 0 191 55" fill="none" xmlns="http://www.w3.org/2000/svg">
<g clip-path="url(#clip0_1_46)">
<path d="M46.0867 0L34.9712 6.62685V34.6725L46.0867 28.1637V0Z" fill="#EA001B"/>
<path d="M46.086 41.6285V55.0002L22.3481 41.1545V27.5449L46.086 41.6285Z" fill="black"/>
<path d="M34.9705 20.3545L23.3896 13.0176L0 27.2175L11.3482 34.1985L34.9705 20.3545Z" fill="#EA001B"/>
<path d="M70.0776 14.4175H83.0515V16.7855H72.6391V26.2257H82.6719V28.5938H72.6391V40.5437H70.0793V14.4175H70.0776Z" fill="#EA001B" stroke="#EA001B" stroke-miterlimit="10"/>
<path d="M112.973 28.4894C112.489 35.6661 106.33 41.0044 99.4461 41.0044C92.0771 41.0044 85.7461 34.9932 85.7461 27.3577C85.7461 23.8933 87.3024 20.3935 89.6906 17.9884C92.3543 15.3015 95.7789 13.9927 99.4461 13.9927C102.11 13.9927 104.739 14.7348 106.954 16.2207C108.614 17.3525 110.76 19.368 111.417 21.3819H108.51C106.711 18.3054 103.009 16.5024 99.4461 16.5024C96.7131 16.5024 93.9453 17.4571 91.8345 19.4372C89.7236 21.4173 88.3059 24.4229 88.3059 27.3914C88.3059 33.7552 93.4601 38.493 99.5501 38.493C104.117 38.493 108.614 35.4165 109.895 30.8558H95.6073V28.4878H112.975L112.973 28.4894Z" fill="#EA001B" stroke="#EA001B" stroke-miterlimit="10"/>
<path d="M117.02 14.4175H119.58V40.5454H117.02V14.4175Z" fill="#EA001B" stroke="#EA001B" stroke-miterlimit="10"/>
<path d="M134.421 14.4175H136.981V38.1756H147.566V40.5437H134.421V14.4175Z" fill="#EA001B" stroke="#EA001B" stroke-miterlimit="10"/>
<path d="M150.402 14.4175H152.962V38.1756H163.548V40.5437H150.402V14.4175Z" fill="#EA001B" stroke="#EA001B" stroke-miterlimit="10"/>
<path d="M187.453 21.1356C185.55 18.1655 181.952 16.5041 178.528 16.5041C172.715 16.5041 167.838 21.6653 167.838 27.3931C167.838 33.5089 172.888 38.4947 178.701 38.4947C182.16 38.4947 185.55 36.5854 187.557 33.7214H190.394C188.179 38.0696 183.51 41.0044 178.701 41.0044C171.193 41.0044 165.278 35.0994 165.278 27.3931C165.278 19.6868 171.228 13.9927 178.493 13.9927C181.088 13.9927 183.682 14.6994 185.862 16.1853C187.488 17.2462 189.599 19.2264 190.29 21.1356H187.453Z" fill="#EA001B" stroke="#EA001B" stroke-miterlimit="10"/>
</g>
<defs>
<clipPath id="clip0_1_46">
<rect width="190.667" height="55" fill="white"/>
</clipPath>
</defs>
</svg>
