<svg width="21" height="21" viewBox="0 0 21 21" fill="none" xmlns="http://www.w3.org/2000/svg">
<g clip-path="url(#clip0_3_762)">
<g clip-path="url(#clip1_3_762)">
<path d="M18.8213 5.36757C18.1851 5.64898 17.5104 5.8338 16.8196 5.9159C17.5477 5.48043 18.0927 4.79508 18.3529 3.98757C17.6696 4.39424 16.9204 4.67924 16.1396 4.8334C15.6151 4.27222 14.9199 3.90004 14.1621 3.77472C13.4042 3.64941 12.6262 3.77798 11.949 4.14045C11.2717 4.50292 10.7332 5.07897 10.4172 5.77906C10.1011 6.47915 10.0252 7.26405 10.2013 8.01174C8.81554 7.94228 7.4599 7.58217 6.22236 6.95479C4.98482 6.32741 3.89306 5.44678 3.01795 4.37007C2.70819 4.90211 2.54541 5.50693 2.54629 6.12257C2.54629 7.3309 3.16129 8.3984 4.09629 9.0234C3.54296 9.00598 3.00181 8.85655 2.51795 8.58757V8.6309C2.51812 9.43565 2.79659 10.2156 3.30616 10.8384C3.81572 11.4613 4.52502 11.8888 5.31379 12.0484C4.80013 12.1876 4.26154 12.2081 3.73879 12.1084C3.96117 12.8011 4.39462 13.4069 4.97845 13.841C5.56227 14.2751 6.26723 14.5157 6.99462 14.5292C6.27169 15.097 5.44393 15.5167 4.55869 15.7644C3.67344 16.012 2.74806 16.0828 1.83545 15.9726C3.42853 16.9971 5.28303 17.541 7.17712 17.5392C13.5879 17.5392 17.0938 12.2284 17.0938 7.62257C17.0938 7.47257 17.0896 7.3209 17.0829 7.17257C17.7653 6.67938 18.3543 6.06842 18.8221 5.3684L18.8213 5.36757Z" fill="black"/>
</g>
</g>
<defs>
<clipPath id="clip0_3_762">
<rect width="20" height="20" fill="white" transform="translate(0.35498 0.653809)"/>
</clipPath>
<clipPath id="clip1_3_762">
<rect width="20" height="20" fill="white" transform="translate(0.35498 0.653809)"/>
</clipPath>
</defs>
</svg>
